<svg width="400" height="400" viewBox="-30 -30 360 360" xmlns="http://www.w3.org/2000/svg">
  <rect width="100%" height="100%" fill="white"/>
  <g stroke="#bdbdbd" stroke-width="1" fill="none">
    <path d="M0 0 H320"/>
    <path d="M0 0 V320"/>
    <path d="M40 0 H320"/>
    <path d="M80 0 H320"/>
    <path d="M120 0 H320"/>
    <path d="M160 0 H320"/>
    <path d="M200 0 H320"/>
    <path d="M240 0 H320"/>
    <path d="M280 0 H320"/>
    <path d="M0 40 V320"/>
    <path d="M0 80 V320"/>
    <path d="M0 120 V320"/>
    <path d="M0 160 V320"/>
    <path d="M0 200 V320"/>
    <path d="M0 240 V320"/>
    <path d="M0 280 V320"/>
  </g>
  <g stroke="#000" stroke-width="2" fill="none">
    <line x1="0" y1="0" x2="320" y2="0" marker-end="url(#arrow)"/>
    <line x1="0" y1="0" x2="0" y2="320" marker-end="url(#arrow)"/>
  </g>
  <g stroke-width="3" fill="none">
    <line x1="0" y1="0" x2="120" y2="120" stroke="#1f77b4" marker-end="url(#arrow)"/>
    <line x1="0" y1="0" x2="240" y2="240" stroke="#d62728" marker-end="url(#arrow)"/>
    <line x1="0" y1="0" x2="300" y2="300" stroke="#000" stroke-dasharray="6 6"/>
  </g>
  <g font-family="Arial, sans-serif" font-size="20">
    <text x="330" y="18">x</text>
    <text x="12" y="330">y</text>
    <text x="130" y="112" fill="#1f77b4">v</text>
    <text x="248" y="232" fill="#d62728">Av = λv</text>
  </g>
  <defs>
    <marker id="arrow" markerWidth="10" markerHeight="10" refX="8" refY="3" orient="auto" markerUnits="strokeWidth">
      <path d="M0,0 L0,6 L9,3 z" fill="#000"/>
    </marker>
  </defs>
</svg>
